<?xml version="1.0" encoding="UTF-8" standalone="no"?>
<!-- Designed by Vexels.com - 2021 All Rights Reserved - https://vexels.com/terms-and-conditions/  -->

<svg
   version="1.1"
   id="Capa_1"
   x="0px"
   y="0px"
   viewBox="0 0 800 800"
   enable-background="new 0 0 1200 1200"
   xml:space="preserve"
   sodipodi:docname="flatcap.svg"
   inkscape:version="1.4.2 (f4327f4, 2025-05-13)"
   width="800"
   height="800"
   xmlns:inkscape="http://www.inkscape.org/namespaces/inkscape"
   xmlns:sodipodi="http://sodipodi.sourceforge.net/DTD/sodipodi-0.dtd"
   xmlns="http://www.w3.org/2000/svg"
   xmlns:svg="http://www.w3.org/2000/svg"><defs
   id="defs3" /><sodipodi:namedview
   id="namedview3"
   pagecolor="#ffffff"
   bordercolor="#000000"
   borderopacity="0.25"
   inkscape:showpageshadow="2"
   inkscape:pageopacity="0.0"
   inkscape:pagecheckerboard="0"
   inkscape:deskcolor="#d1d1d1"
   showgrid="false"
   inkscape:zoom="0.58012219"
   inkscape:cx="681.75293"
   inkscape:cy="588.66909"
   inkscape:window-width="2560"
   inkscape:window-height="1369"
   inkscape:window-x="1072"
   inkscape:window-y="-8"
   inkscape:window-maximized="1"
   inkscape:current-layer="g4" />

<g
   id="g4"
   transform="translate(0,27.679441)"><g
     id="g3"
     transform="matrix(0.32657368,0,0,0.32657368,204.05592,74.05591)">
	<path
   fill="#1c1c1c"
   d="m 358.598,570.02 c 0,0 -97.083,18.209 -127.513,90.167 -30.43,71.958 141.007,279.792 626.79,246.057 0,0 292.26,-13.494 291.19,-105.703 -1.07,-92.209 19.262,-228.855 -85.362,-325.833 C 959.079,377.73 358.598,570.02 358.598,570.02 Z"
   id="path1"
   style="fill:#1c1e22;fill-opacity:1" />
	<path
   fill="#3f3f3f"
   d="m 107.273,774.117 c -15.979,0 -35.645,-11.038 -57.27,-26.298 0.27,43.183 16.562,81.378 52.21,109.629 0,0 10.119,43.851 306.986,-74.898 C 608.049,703.01 852.231,572.006 1003.532,553.121 951.309,538.287 896.488,530.1 839.32,530.1 560.446,547.53 368.719,774.117 107.273,774.117 Z"
   id="path2"
   style="fill:#23262b;fill-opacity:1" />
	<path
   fill="#535353"
   d="M 656.215,292.268 C 310.502,319.276 48.92,574.411 50.003,747.819 c 21.625,15.26 41.291,26.298 57.27,26.298 261.446,0 453.172,-226.586 732.048,-244.016 57.168,0 111.989,8.187 164.212,23.021 67.14,-8.383 116.059,5.226 134.457,55.396 0.496,0.272 0.981,0.566 1.479,0.843 -17.211,-72.018 -107.692,-346.434 -483.254,-317.093 z"
   id="path3"
   style="fill:#2d3036;fill-opacity:1" />
</g><text
     xml:space="preserve"
     style="font-size:152.186px;line-height:0.5;font-family:'FiraCode Nerd Font';-inkscape-font-specification:'FiraCode Nerd Font';text-align:start;writing-mode:lr-tb;direction:ltr;text-anchor:start;fill:#1c1e22;stroke-width:2.61231"
     x="401.52188"
     y="499.75919"
     id="text3"><tspan
       sodipodi:role="line"
       id="tspan3"
       x="401.52188"
       y="499.75919"
       style="font-style:normal;font-variant:normal;font-weight:normal;font-stretch:normal;font-size:96px;line-height:0.5;font-family:Inconsolata;-inkscape-font-specification:Inconsolata;text-align:center;text-anchor:middle;stroke-width:2.61231">FLAT CAP</tspan><tspan
       sodipodi:role="line"
       x="401.52188"
       y="575.85217"
       style="font-style:normal;font-variant:normal;font-weight:normal;font-stretch:normal;font-size:74.6667px;line-height:0.5;font-family:Inconsolata;-inkscape-font-specification:Inconsolata;text-align:center;text-anchor:middle;fill:#42474e;fill-opacity:1;stroke-width:2.61231"
       id="tspan4">THEME</tspan></text></g></svg>
