<?xml version="1.0" encoding="UTF-8" standalone="no"?>
<!-- Designed by Vexels.com - 2021 All Rights Reserved - https://vexels.com/terms-and-conditions/  -->

<svg
   version="1.1"
   id="Capa_1"
   x="0px"
   y="0px"
   viewBox="0 0 800 600"
   enable-background="new 0 0 1200 1200"
   xml:space="preserve"
   sodipodi:docname="readme_logo.svg"
   inkscape:version="1.4.2 (f4327f4, 2025-05-13)"
   width="800"
   height="600"
   xmlns:inkscape="http://www.inkscape.org/namespaces/inkscape"
   xmlns:sodipodi="http://sodipodi.sourceforge.net/DTD/sodipodi-0.dtd"
   xmlns="http://www.w3.org/2000/svg"
   xmlns:svg="http://www.w3.org/2000/svg"><defs
   id="defs3" /><sodipodi:namedview
   id="namedview3"
   pagecolor="#ffffff"
   bordercolor="#000000"
   borderopacity="0.25"
   inkscape:showpageshadow="2"
   inkscape:pageopacity="0.0"
   inkscape:pagecheckerboard="0"
   inkscape:deskcolor="#d1d1d1"
   showgrid="false"
   inkscape:zoom="1.1602444"
   inkscape:cx="437.83879"
   inkscape:cy="365.8712"
   inkscape:window-width="2560"
   inkscape:window-height="1369"
   inkscape:window-x="1072"
   inkscape:window-y="-8"
   inkscape:window-maximized="1"
   inkscape:current-layer="g4" />

<g
   id="g4"
   transform="translate(0,27.679441)"><g
     id="g5"
     transform="translate(-1.5218871,6.0829472)"><text
       xml:space="preserve"
       style="font-size:152.186px;line-height:0.5;font-family:'FiraCode Nerd Font';-inkscape-font-specification:'FiraCode Nerd Font';text-align:start;writing-mode:lr-tb;direction:ltr;text-anchor:start;fill:#1c1e22;stroke-width:2.61231"
       x="401.52188"
       y="477.75916"
       id="text3"
       inkscape:label="text3"><tspan
         sodipodi:role="line"
         id="tspan3"
         x="401.52188"
         y="477.75916"
         style="font-style:normal;font-variant:normal;font-weight:normal;font-stretch:normal;font-size:96px;line-height:0.5;font-family:Inconsolata;-inkscape-font-specification:Inconsolata;text-align:center;text-anchor:middle;fill:#6b7f8e;fill-opacity:1;stroke-width:2.61231">FLAT CAP</tspan><tspan
         sodipodi:role="line"
         x="401.52188"
         y="553.85217"
         style="font-style:normal;font-variant:normal;font-weight:normal;font-stretch:normal;font-size:74.6667px;line-height:0.5;font-family:Inconsolata;-inkscape-font-specification:Inconsolata;text-align:center;text-anchor:middle;fill:#42474e;fill-opacity:1;stroke-width:2.61231"
         id="tspan4">THEME</tspan></text><g
       id="g3"
       transform="matrix(2.8388199,0,0,2.8593805,213.74577,-21.376934)"><circle
         style="fill:#1c1e22;fill-opacity:1;stroke-width:0.57893"
         id="path4"
         cx="66.145836"
         cy="66.145836"
         r="66.145836"
         inkscape:label="circle" /><g
         id="g2"
         transform="matrix(1.0398789,0,0,1.0398789,-19.865504,-49.743937)"><g
           id="g1"><path
             fill="#1c1c1c"
             d="m 61.854317,108.85501 c 0,0 -8.388549,1.57336 -11.017882,7.79096 -2.629333,6.2176 12.183844,24.1757 54.158385,21.26079 0,0 25.253,-1.16596 25.16055,-9.13337 -0.0925,-7.9674 1.66435,-19.77443 -7.37579,-28.15391 -9.04013,-8.379472 -60.925263,8.23553 -60.925263,8.23553 z"
             id="path1"
             style="fill:#23262b;fill-opacity:1;stroke-width:0.0864059" /><path
             fill="#3f3f3f"
             d="m 40.138341,126.4902 c -1.38068,0 -3.07994,-0.95375 -4.948468,-2.2723 0.02333,3.73127 1.431055,7.03154 4.511254,9.4726 0,0 0.874342,3.78899 26.525417,-6.47163 17.181823,-6.87273 38.280606,-18.19226 51.353906,-19.82404 -4.51238,-1.28174 -9.24924,-1.98915 -14.18889,-1.98915 -24.096375,1.50606 -40.662729,21.08452 -63.253219,21.08452 z"
             id="path2"
             style="fill:#2d3036;fill-opacity:1;stroke-width:0.0864059" /><path
             fill="#535353"
             d="m 87.570196,84.855583 c -29.87166,2.333652 -52.473901,24.378837 -52.380323,39.362317 1.868528,1.31855 3.567788,2.2723 4.948468,2.2723 22.59049,0 39.156758,-19.57837 63.253299,-21.08443 4.93966,0 9.67652,0.70741 14.1889,1.98915 5.80129,-0.72434 10.02819,0.45156 11.61788,4.78654 0.0429,0.0235 0.0848,0.0489 0.1278,0.0729 -1.48714,-6.22279 -9.30523,-29.933964 -41.756024,-27.398727 z"
             id="path3"
             style="fill:#42474e;fill-opacity:1;stroke-width:0.0864059" /></g></g></g></g></g></svg>
